<svg width="512" height="512" version="1.1" viewBox="0 0 135.47 135.47" xml:space="preserve" xmlns="http://www.w3.org/2000/svg"><g><g transform="rotate(30 224.54 35.215)"><ellipse cx="105" cy="141.78" rx="60.823" ry="61.23" fill="#7a4579" stop-color="#000000"/><path d="m158.03 172.39a61.23 60.823 30 0 0 4.35-9.3678l-104.46-60.313a61.23 60.823 30 0 0-5.9378 8.4511 61.23 60.823 30 0 0-4.3502 9.3683l104.49 60.328a61.23 60.823 30 0 0 5.9116-8.4668z" fill="#d56073" stop-color="#000000"/><path d="m51.974 172.39a60.823 61.23 60 0 1-4.35-9.3678l104.46-60.313a60.823 61.23 60 0 1 5.9378 8.4511 60.823 61.23 60 0 1 4.3502 9.3683l-104.49 60.328a60.823 61.23 60 0 1-5.9116-8.4668z" fill="#d56073" stop-color="#000000"/><path d="m105 80.549a60.823 61.23 0 0 0-10.288 0.91674v120.63a60.823 61.23 0 0 0 10.288 0.91674 60.823 61.23 0 0 0 10.288-0.91674v-120.66a60.823 61.23 0 0 0-10.288-0.88625z" fill="#fff" stop-color="#000000"/><path d="m166.23 141.78a61.23 60.823 0 0 0-0.91674-10.288h-120.63a61.23 60.823 0 0 0-0.91674 10.288 61.23 60.823 0 0 0 0.91674 10.288h120.66a61.23 60.823 0 0 0 0.88625-10.288z" fill="#fff" stop-color="#000000"/></g></g></svg>
