<svg width="512" height="512" viewBox="0 0 135.47 135.47" xml:space="preserve" xmlns="http://www.w3.org/2000/svg"><g transform="rotate(30 224.54 35.215)"><ellipse cx="105" cy="141.78" rx="60.823" ry="61.23" fill="#7a4579"/><path d="M158.03 172.39a61.23 60.823 30 0 0 4.35-9.368L57.92 102.71a61.23 60.823 30 0 0-5.938 8.451 61.23 60.823 30 0 0-4.35 9.369l104.49 60.328a61.23 60.823 30 0 0 5.912-8.467z" fill="#d56073"/><path d="M51.974 172.39a60.823 61.23 60 0 1-4.35-9.368l104.46-60.313a60.823 61.23 60 0 1 5.938 8.451 60.823 61.23 60 0 1 4.35 9.369l-104.49 60.328a60.823 61.23 60 0 1-5.912-8.467z" fill="#d56073"/><path d="M105 80.549a60.823 61.23 0 0 0-10.288.917v120.63a60.823 61.23 0 0 0 10.288.916 60.823 61.23 0 0 0 10.288-.916V81.436A60.823 61.23 0 0 0 105 80.549z" fill="#fff"/><path d="M166.23 141.78a61.23 60.823 0 0 0-.917-10.288H44.683a61.23 60.823 0 0 0-.916 10.288 61.23 60.823 0 0 0 .916 10.288h120.66a61.23 60.823 0 0 0 .887-10.288z" fill="#fff"/></g></svg>